HIERARCHY
ROOT hip
{
	OFFSET 0.000000 0.000000 0.000000 
	CHANNELS 6 Xposition Yposition Zposition Xrotation Zrotation Yrotation
	JOINT abdomen
	{
		OFFSET 0.000000 3.402643 0.000000 
		CHANNELS 3 Xrotation Zrotation Yrotation
		JOINT chest
		{
			OFFSET 0.000000 8.438565 -0.680529 
			CHANNELS 3 Xrotation Zrotation Yrotation
			JOINT neck
			{
				OFFSET 0.000000 10.207942 -0.272212 
				CHANNELS 3 Xrotation Zrotation Yrotation
				JOINT head
				{
					OFFSET 0.000000 3.130431 0.000000 
					CHANNELS 3 Xrotation Zrotation Yrotation
					End Site
					{
						OFFSET 0.000000 3.130435 0.000000 
					}
				}
			}
			JOINT lCollar
			{
				OFFSET 3.470700 6.669187 -0.816635 
				CHANNELS 3 Yrotation Zrotation Xrotation
				JOINT lShldr
				{
					OFFSET 3.198488 0.000000 0.000000 
					CHANNELS 3 Zrotation Yrotation Xrotation
					JOINT lForeArm
					{
						OFFSET 10.139888 0.000000 0.000000 
						CHANNELS 3 Yrotation Zrotation Xrotation
						JOINT lHand
						{
							OFFSET 8.370511 0.000000 0.000000 
							CHANNELS 3 Zrotation Yrotation Xrotation
							End Site
							{
								OFFSET 4.083176 0.000000 0.000000 
							}
						}
					}
				}
			}
			JOINT rCollar
			{
				OFFSET -3.470700 6.669187 -0.816635 
				CHANNELS 3 Yrotation Zrotation Xrotation
				JOINT rShldr
				{
					OFFSET -3.198488 0.000000 0.000000 
					CHANNELS 3 Zrotation Yrotation Xrotation
					JOINT rForeArm
					{
						OFFSET -10.139888 0.000000 0.000000 
						CHANNELS 3 Yrotation Zrotation Xrotation
						JOINT rHand
						{
							OFFSET -8.370511 0.000000 0.000000 
							CHANNELS 3 Zrotation Yrotation Xrotation
							End Site
							{
								OFFSET -4.083176 0.000000 0.000000 
							}
						}
					}
				}
			}
		}
	}
	JOINT lThigh
	{
		OFFSET 5.308129 -1.633274 1.361059 
		CHANNELS 3 Xrotation Zrotation Yrotation
		JOINT lShin
		{
			OFFSET -2.041588 -20.007561 0.000000 
			CHANNELS 3 Xrotation Zrotation Yrotation
			JOINT lFoot
			{
				OFFSET 0.000000 -19.190928 -1.224953 
				CHANNELS 3 Xrotation Yrotation Zrotation
				End Site
				{
					OFFSET 0.000000 -2.449906 4.627600 
				}
			}
		}
	}
	JOINT rThigh
	{
		OFFSET -5.308129 -1.633274 1.361059 
		CHANNELS 3 Xrotation Zrotation Yrotation
		JOINT rShin
		{
			OFFSET 2.041588 -20.007561 0.000000 
			CHANNELS 3 Xrotation Zrotation Yrotation
			JOINT rFoot
			{
				OFFSET 0.000000 -19.190928 -1.224953 
				CHANNELS 3 Xrotation Yrotation Zrotation
				End Site
				{
					OFFSET 0.000000 -2.449906 4.627600 
				}
			}
		}
	}
}
MOTION
Frames: 13
Frame Time: 0.016667
3.667618 44.177563 0.017454 22.194263 50.708019 -132.479691 0.000000 0.000000 0.000000 37.819618 33.823822 5.022918 -4.524712 -11.609073 -31.206055 8.787935 34.700897 -40.411991 -2.693177 8.223887 -8.438426 -128.738541 -61.429321 54.517532 -54.412594 -0.621589 2.992486 10.970614 -17.505144 29.820152 2.068660 -8.371297 1.993190 47.951324 -56.534264 -103.388893 17.708406 1.005222 2.508334 -8.204329 14.228680 -13.935050 -51.585815 50.191193 -6.646010 53.333828 -2.308979 -6.544610 -35.739799 -2.183901 6.250396 -57.762001 -6.396232 1.890585 94.720345 -0.751861 1.972570 -12.646230 -1.195426 34.379738 
3.721039 44.804066 1.074858 14.894006 58.420349 -142.551758 0.000000 0.000000 0.000000 38.393600 35.511414 5.464281 -5.470344 -9.819273 -26.830271 7.997633 36.301353 -36.417572 -2.757628 8.285427 -8.477792 -99.602722 -62.324371 34.971325 -68.389587 -0.611385 3.243302 18.990229 -11.986037 29.001192 1.999376 -8.304992 2.002921 39.376377 -55.163029 -99.726593 21.082811 0.958432 2.537618 -6.439130 12.817209 -12.711228 -59.002930 52.591583 -10.518394 50.968849 -2.509173 -1.999813 -33.755116 -1.221850 5.158907 -58.217686 -14.598920 8.605788 88.855766 -0.087892 -3.448556 -8.641323 0.499256 30.856256 
3.774276 45.430401 2.132010 2.647295 65.045456 -157.477737 0.000000 0.000000 0.000000 39.005177 37.175804 5.941060 -6.267042 -7.956568 -22.514597 7.329411 37.947594 -32.364143 -2.822028 8.337880 -8.528207 -72.591766 -58.738125 17.584734 -82.366615 -0.656292 3.482605 26.806168 -6.419071 28.979250 1.939480 -8.228610 2.012639 31.267017 -53.512199 -96.552933 24.476265 0.919055 2.568083 -4.700078 11.360501 -11.545989 -67.048119 54.642826 -15.077284 48.613804 -2.520228 2.584106 -31.748888 -0.330141 4.038763 -59.720798 -22.694685 15.728920 82.947624 0.009631 -8.909953 -4.547315 1.948874 27.228106 
3.691785 45.920059 3.002787 165.716721 112.445862 2.154402 0.000000 0.000000 0.000000 40.189983 35.175053 5.980298 -6.791134 -6.510788 -18.817739 6.431942 40.301876 -29.460285 -2.786496 8.344815 -8.419636 -49.137508 -44.124027 -3.798043 -94.183372 -0.761012 3.723072 28.324076 -2.524199 24.789104 2.001013 -8.302608 2.081601 26.518549 -51.185062 -95.759087 28.915743 0.867349 2.617889 -3.494604 9.319562 -11.783207 -70.992279 57.182072 -17.896509 46.294014 -2.725307 8.074929 -29.633200 0.233659 2.477293 -57.402008 -32.204357 15.775690 63.841579 1.838488 -11.863022 8.938914 3.989036 21.994722 
3.610949 46.408882 3.872406 -33.188442 67.384842 159.840530 0.000000 0.000000 0.000000 41.347752 33.167946 5.970070 -7.232820 -5.034603 -15.148273 5.667147 42.684402 -26.485731 -2.752429 8.342250 -8.312470 -36.723175 -26.284956 -13.856422 -105.997681 -0.914615 3.936121 29.563175 1.480315 20.701004 2.072857 -8.385870 2.151965 22.051138 -48.834934 -95.287025 33.364368 0.818502 2.663977 -2.305427 7.283015 -12.081615 -75.477432 59.608768 -21.279140 43.987522 -2.688771 13.578824 -27.512833 0.736005 0.909307 -54.788235 -41.715969 15.345692 44.686272 2.607188 -15.225182 22.554451 4.745718 16.413597 
4.733413 46.285805 3.890338 -49.164600 65.738113 146.178955 0.000000 0.000000 0.000000 37.900253 34.878830 4.978014 -7.389725 -4.802898 -14.966461 5.906520 42.310249 -25.790621 -2.967993 8.267082 -8.475990 -31.338923 -13.980167 -20.069138 -109.040672 -0.951120 3.981357 27.053419 5.959955 17.518282 1.786816 -8.331634 2.012804 20.673517 -49.424118 -94.110916 36.493065 0.774094 2.712863 -6.480923 1.328673 -18.373434 -88.382317 59.324593 -27.960526 45.172966 -2.677574 11.365079 -26.791332 1.346071 0.775838 -42.532337 -53.098763 1.275166 23.362642 1.401286 -4.806462 29.303001 5.554551 14.791532 
5.855050 46.163349 3.909081 -62.625034 62.759521 135.057541 0.000000 0.000000 0.000000 34.357399 36.539490 3.858724 -7.551625 -4.579990 -14.794630 6.150956 41.932171 -25.089209 -3.182632 8.193768 -8.648983 -27.466209 -1.252113 -24.931074 -112.074997 -1.009613 4.023064 24.262674 10.274485 14.103182 1.510799 -8.275767 1.874975 19.278965 -50.003441 -92.926933 39.621559 0.725254 2.745876 -10.003801 -5.021519 -24.238091 -100.874222 58.290016 -34.218758 46.380726 -2.608781 9.166021 -26.082661 1.931976 0.583902 -21.321083 -61.331131 -21.610685 2.198958 4.066918 5.318726 36.071705 6.164991 13.090459 
6.379317 46.481045 4.510178 -65.574203 58.612400 135.125214 0.000000 0.000000 0.000000 30.729975 34.757183 2.616713 -7.574491 -5.106974 -15.659998 5.872185 41.403111 -26.245539 -2.989125 8.045382 -8.637227 -26.470324 3.652696 -21.260136 -108.285828 -0.950247 3.961304 22.460661 6.136747 16.224934 1.698568 -8.361052 1.736762 22.693274 -50.550911 -94.266441 39.787804 0.721065 2.751014 -17.305403 -9.177912 -27.224844 -99.989754 55.291107 -32.714081 43.646034 -2.772229 10.330832 -23.461733 1.784460 0.331946 -1.632236 -67.357956 -38.487015 1.890774 4.046703 3.520123 31.056932 2.380878 3.061698 
6.902339 46.798687 5.112121 -68.199615 54.469238 135.556458 0.000000 0.000000 0.000000 27.247005 32.910389 1.551971 -7.600658 -5.628244 -16.527550 5.624990 40.868366 -27.380337 -2.785913 7.895604 -8.626871 -25.153896 8.480532 -17.484013 -104.506470 -0.886883 3.897941 20.510376 2.072736 18.450230 1.877620 -8.447227 1.609649 26.153410 -51.039787 -95.683372 39.964134 0.707429 2.746099 -24.488596 -13.672899 -29.691139 -99.308617 52.274059 -31.421507 40.910717 -2.883787 11.501657 -20.852530 1.597981 0.103135 26.212061 -69.930977 -63.587402 1.581203 4.022716 1.740931 25.486149 -0.467984 -7.193382 
6.545508 47.085487 6.312045 -71.893242 51.637444 129.136642 0.000000 0.000000 0.000000 28.280367 29.832283 1.745403 -7.829523 -4.755083 -14.112675 4.809314 37.382481 -24.278765 -2.623922 7.851666 -8.480811 -28.273045 19.444830 -17.686533 -103.135834 -0.875085 3.867208 20.121449 0.833914 18.823858 2.074024 -8.567214 1.659202 20.397635 -48.973705 -94.341309 37.001938 0.752804 2.709371 -27.909092 -11.982764 -23.974342 -101.357567 53.553310 -34.918907 38.839951 -3.059007 16.802860 -18.625528 1.194452 -0.076517 34.368858 -66.132545 -66.304253 1.749389 4.086821 11.394874 37.722504 1.927130 1.395592 
6.187527 47.372013 7.510375 -74.877380 48.594051 123.380165 0.000000 0.000000 0.000000 29.265339 26.765207 1.860445 -8.026237 -3.873061 -11.707386 3.810480 33.946728 -21.248764 -2.471505 7.800767 -8.342884 -31.739220 30.374350 -18.604713 -101.765320 -0.864258 3.837552 19.728567 -0.403886 19.209255 2.272423 -8.696248 1.718375 14.942678 -46.834511 -93.366150 34.039204 0.803917 2.667193 -31.135471 -9.964111 -18.408274 -103.614265 54.745098 -38.608627 36.750553 -3.068518 22.093214 -16.395191 0.778921 -0.242820 41.079151 -62.217068 -67.483437 1.960948 4.127683 21.001617 49.480568 6.027230 9.313315 
5.027814 47.466393 7.598403 -78.577499 46.021030 118.478630 0.000000 0.000000 0.000000 28.455427 25.557919 1.581155 -8.096042 -3.791607 -11.363116 4.691529 31.112566 -19.839653 -2.453621 7.746988 -8.312781 -41.577839 35.689041 -21.322203 -102.549850 -0.863074 3.851370 16.621078 0.018397 20.702766 2.298680 -8.745363 1.689412 9.496027 -44.434345 -91.750168 33.384243 0.809454 2.663509 -27.054546 -4.881607 -14.134384 -105.402794 55.624371 -41.485847 35.956570 -3.076242 23.788572 -16.513353 0.645733 0.048784 33.383900 -59.667202 -45.462215 14.198168 1.449227 -0.181401 50.515285 3.443665 4.892336 
3.868831 47.560570 7.685953 -81.798447 43.251060 114.033585 0.000000 0.000000 0.000000 27.639130 24.359623 1.310890 -8.154440 -3.709689 -11.029267 5.479165 28.271971 -18.510242 -2.427427 7.682168 -8.282750 -52.439453 40.507378 -25.375378 -103.339661 -0.862754 3.869275 13.545993 0.516485 22.166948 2.315412 -8.804545 1.660468 4.346327 -41.935837 -90.503746 32.719162 0.824212 2.659782 -22.625061 -0.115911 -9.516459 -107.322517 56.444485 -44.491817 35.171074 -3.100976 25.488186 -16.670094 0.518168 0.321672 28.485140 -55.950844 -26.041189 26.598078 3.408689 -21.429058 51.319756 0.811542 0.548900 
